<svg xmlns="http://www.w3.org/2000/svg" id="svg79" style="clip-rule:evenodd;fill-rule:evenodd;stroke-linejoin:round;stroke-miterlimit:1.5" xml:space="preserve" version="1.1" viewBox="0 0 210 210" height="210" width="210"><defs id="defs83"></defs>
    <g id="g77" transform="matrix(1.05081,0,0,0.602459,-74.3378,-345.171)">
        
    <g style="display:inline" transform="matrix(0.24162908,0,0,0.42144982,108.8092,639.33147)" id="g370"><circle id="circle311" r="256" cy="256" cx="256" style="fill:#f0f0f0"></circle><path id="path313" d="M 512,256 C 512,145.929 442.528,52.094 345.043,15.923 V 496.078 C 442.528,459.906 512,366.071 512,256 Z" style="fill:#d80027"></path><path id="path315" d="M 0,256 C 0,366.071 69.472,459.906 166.957,496.077 V 15.923 C 69.472,52.094 0,145.929 0,256 Z" style="fill:#6da544"></path><g id="g317">
</g><g id="g319">
</g><g id="g321">
</g><g id="g323">
</g><g id="g325">
</g><g id="g327">
</g><g id="g329">
</g><g id="g331">
</g><g id="g333">
</g><g id="g335">
</g><g id="g337">
</g><g id="g339">
</g><g id="g341">
</g><g id="g343">
</g><g id="g345">
</g></g><g style="clip-rule:evenodd;fill-rule:evenodd;stroke-linejoin:round;stroke-miterlimit:1.5" id="g75">
            <g style="fill:#4b8000;fill-opacity:1" id="g49" transform="matrix(0.973838,0,0,1.69858,-1.56777,-150.61837)">
                <path id="path47" style="fill:#4b8000;fill-opacity:1;stroke:#67ea94;stroke-width:14.11px;stroke-opacity:1" d="m 81.582,577.266 66.954,-98.462"></path>
            </g>
            
            
            <g id="g61" transform="matrix(0.977299,0,0,1.70462,-43.6432,129.02283)">
                <path id="path59" style="fill:none;stroke:#67ea94;stroke-width:13.85px;stroke-opacity:1" d="m 187.032,410.85 63.864,-93.658 64.011,93.51"></path>
            </g>
            
            
            <g id="g73" transform="matrix(0.571939,0,0,1,1030.51,760.498)">
                
            </g>
        </g></g>
</svg>
